control3min_grf.mot
version=1
nRows=25
nColumns 19
inDegrees=yes
endheader
time	1_ground_force_vx	1_ground_force_vy	1_ground_force_vz	1_ground_force_px	1_ground_force_py	1_ground_force_pz	1_ground_torque_x	1_ground_torque_y	1_ground_torque_z	2_ground_force_vx	2_ground_force_vy	2_ground_force_vz	2_ground_force_px	2_ground_force_py	2_ground_force_pz	2_ground_torque_x	2_ground_torque_y	2_ground_torque_z
            0.005000	           -2.276265	          592.433274	          -58.306612	           -0.232006	            0.006266	           -0.415258	           -0.011177	            2.908975	           -0.286298	          -23.362036	          702.810262	           56.578693	           -0.196199	            0.005781	           -0.699277	            0.030271	           -0.910662	           -0.073312
            0.005500	           -2.089976	          589.544930	          -57.356456	           -0.232159	            0.006265	           -0.415111	           -0.010127	            2.856746	           -0.277931	          -22.785983	          698.945991	           56.330015	           -0.196158	            0.005781	           -0.699178	            0.030748	           -0.943175	           -0.076013
            0.006000	           -1.996263	          584.675839	          -56.918995	           -0.231781	            0.006266	           -0.415221	           -0.009255	            2.710625	           -0.263883	          -22.633448	          695.631676	           56.365057	           -0.196178	            0.005782	           -0.699456	            0.029927	           -0.919796	           -0.074528
            0.006500	           -1.718920	          580.887530	          -56.293927	           -0.231842	            0.006266	           -0.415246	           -0.007591	            2.565126	           -0.248587	          -22.199982	          692.319716	           56.024554	           -0.196054	            0.005782	           -0.699544	            0.031228	           -0.973867	           -0.078808
            0.007000	           -1.397394	          577.462575	          -56.309409	           -0.231654	            0.006266	           -0.415218	           -0.006059	            2.503820	           -0.244152	          -22.043582	          687.901439	           55.774084	           -0.195942	            0.005782	           -0.699288	            0.027796	           -0.867421	           -0.070329
            0.007500	           -1.028282	          572.592825	          -55.735067	           -0.231476	            0.006267	           -0.415451	           -0.004552	            2.534576	           -0.246711	          -21.939269	          684.955572	           55.716603	           -0.195959	            0.005783	           -0.699508	            0.025381	           -0.792423	           -0.064458
            0.008000	           -0.660050	          568.806032	          -55.431214	           -0.231484	            0.006266	           -0.415337	           -0.003054	            2.631540	           -0.256448	          -21.642924	          680.721502	           55.607515	           -0.195843	            0.005783	           -0.699446	            0.025366	           -0.797824	           -0.065173
            0.008500	           -0.657568	          563.936015	          -54.810101	           -0.231196	            0.006267	           -0.415607	           -0.003104	            2.662429	           -0.258767	          -21.208711	          677.224670	           55.454067	           -0.195963	            0.005783	           -0.699586	            0.024535	           -0.783442	           -0.064152
            0.009000	           -0.609880	          560.689140	          -54.319717	           -0.231320	            0.006266	           -0.415359	           -0.002863	            2.631852	           -0.254975	          -20.676827	          672.623500	           55.249709	           -0.195629	            0.005784	           -0.699450	            0.024346	           -0.791991	           -0.065055
            0.009500	           -0.241112	          557.081538	          -53.785816	           -0.231208	            0.006266	           -0.415307	           -0.001070	            2.472808	           -0.238748	          -20.525707	          669.678137	           55.098352	           -0.195833	            0.005783	           -0.699533	            0.024516	           -0.799876	           -0.065811
            0.010000	           -0.055647	          551.851873	          -53.350128	           -0.230931	            0.006267	           -0.415598	           -0.000232	            2.302874	           -0.222630	          -20.272305	          664.339723	           54.797629	           -0.195748	            0.005783	           -0.699476	            0.022052	           -0.722666	           -0.059609
            0.010500	           -0.008154	          548.425095	          -52.952221	           -0.230996	            0.006266	           -0.415268	           -0.000033	            2.213146	           -0.213686	          -20.023539	          660.290189	           54.548434	           -0.195699	            0.005783	           -0.699365	            0.020985	           -0.691992	           -0.057167
            0.011000	            0.406639	          543.195277	          -52.471249	           -0.230744	            0.006267	           -0.415592	            0.001752	            2.340830	           -0.226118	          -19.494936	          656.609326	           54.441217	           -0.195715	            0.005783	           -0.699439	            0.022484	           -0.757296	           -0.062789
            0.011500	            0.729612	          539.948062	          -51.889828	           -0.230709	            0.006267	           -0.415533	            0.003382	            2.503000	           -0.240542	          -19.343796	          653.663795	           54.336788	           -0.195586	            0.005785	           -0.699813	            0.020822	           -0.703619	           -0.058489
            0.012000	            0.961163	          535.258582	          -51.314371	           -0.230555	            0.006267	           -0.415416	            0.004565	            2.542283	           -0.243725	          -18.861361	          649.798639	           54.275863	           -0.195574	            0.005785	           -0.699799	            0.019526	           -0.672695	           -0.056188
            0.012500	            1.467852	          530.749254	          -50.692964	           -0.230398	            0.006267	           -0.415555	            0.006854	            2.478208	           -0.236699	          -18.892401	          645.380020	           53.931616	           -0.195652	            0.005785	           -0.699845	            0.017788	           -0.607668	           -0.050780
            0.013000	            1.424312	          526.240139	          -50.116043	           -0.230305	            0.006268	           -0.415777	            0.006205	            2.292448	           -0.218319	          -18.174531	          641.148477	           53.540780	           -0.195582	            0.005785	           -0.699781	            0.018275	           -0.644678	           -0.053835
            0.013500	            1.150856	          522.452903	          -49.764746	           -0.230339	            0.006268	           -0.415765	            0.004653	            2.112413	           -0.201212	          -17.973860	          637.466385	           53.480631	           -0.195428	            0.005786	           -0.699891	            0.018492	           -0.655854	           -0.055023
            0.014000	            1.748530	          518.665639	          -49.369758	           -0.230046	            0.006267	           -0.415452	            0.007178	            2.129082	           -0.202659	          -17.345743	          632.129995	           52.992037	           -0.195409	            0.005785	           -0.699592	            0.019260	           -0.701884	           -0.058840
            0.014500	            1.980374	          513.615296	          -48.704127	           -0.230014	            0.006268	           -0.415580	            0.008569	            2.222316	           -0.210734	          -17.381294	          628.999251	           52.980886	           -0.195233	            0.005787	           -0.699882	            0.017790	           -0.643806	           -0.054228
            0.015000	            2.394026	          509.648941	          -48.584592	           -0.229814	            0.006267	           -0.415376	            0.011050	            2.352361	           -0.224249	          -16.991558	          624.768030	           52.167837	           -0.195223	            0.005787	           -0.700058	            0.017677	           -0.649976	           -0.054273
            0.015500	            2.488503	          504.958709	          -47.825363	           -0.229922	            0.006268	           -0.415608	            0.011663	            2.366651	           -0.224149	          -16.601411	          620.533462	           52.293349	           -0.195307	            0.005786	           -0.699934	            0.016632	           -0.621678	           -0.052390
            0.016000	            2.627976	          501.171024	          -47.337525	           -0.229827	            0.006268	           -0.415653	            0.011977	            2.284177	           -0.215749	          -16.538693	          616.114802	           52.089848	           -0.195141	            0.005787	           -0.699953	            0.015304	           -0.570126	           -0.048202
            0.016500	            2.859739	          495.940581	          -46.718527	           -0.229730	            0.006269	           -0.415853	            0.012147	            2.106497	           -0.198436	          -16.009490	          612.250362	           51.841190	           -0.195088	            0.005789	           -0.700304	            0.015513	           -0.593263	           -0.050234
            0.017000	            2.908532	          492.871975	          -45.768803	           -0.229538	            0.006267	           -0.415323	            0.011777	            1.995705	           -0.185324	          -15.666336	          608.016797	           51.638225	           -0.194986	            0.005789	           -0.700179	            0.014958	           -0.580521	           -0.049303
